<svg width="1458" height="1036" viewBox="0 0 1458 1036" fill="none" xmlns="http://www.w3.org/2000/svg">
<line y1="-1" x2="511.956" y2="-1" transform="matrix(0.00132275 0.999999 -1 -1.53639e-05 5.931 2.0022)" stroke="#F2F2F2" stroke-width="2"/>
<line y1="-1" x2="511.956" y2="-1" transform="matrix(0.00132023 0.999999 -1 -1.72461e-05 150.445 2.00476)" stroke="#F2F2F2" stroke-width="2"/>
<line y1="-1" x2="511.956" y2="-1" transform="matrix(0.00132023 0.999999 -1 -1.72461e-05 294.959 2.00714)" stroke="#F2F2F2" stroke-width="2"/>
<line y1="-1" x2="511.956" y2="-1" transform="matrix(0.00132023 0.999999 -1 -1.72461e-05 439.474 2.00964)" stroke="#F2F2F2" stroke-width="2"/>
<line y1="-1" x2="511.956" y2="-1" transform="matrix(0.00132009 0.999999 -1 -1.73636e-05 583.988 2.01227)" stroke="#F2F2F2" stroke-width="2"/>
<line y1="-1" x2="511.956" y2="-1" transform="matrix(0.00132009 0.999999 -1 -1.73636e-05 728.502 2.01483)" stroke="#F2F2F2" stroke-width="2"/>
<line y1="-1" x2="511.956" y2="-1" transform="matrix(0.00132007 0.999999 -1 -1.73804e-05 873.017 2.01733)" stroke="#F2F2F2" stroke-width="2"/>
<line y1="-1" x2="511.956" y2="-1" transform="matrix(0.00132011 0.999999 -1 -1.73472e-05 1017.53 2.01984)" stroke="#F2F2F2" stroke-width="2"/>
<line y1="-1" x2="511.956" y2="-1" transform="matrix(0.00132014 0.999999 -1 -1.73167e-05 1162.05 2.02228)" stroke="#F2F2F2" stroke-width="2"/>
<line y1="-1" x2="511.956" y2="-1" transform="matrix(0.00132016 0.999999 -1 -1.73004e-05 1306.56 2.02472)" stroke="#F2F2F2" stroke-width="2"/>
<line y1="-1" x2="511.956" y2="-1" transform="matrix(0.0013201 0.999999 -1 -1.73527e-05 1451.07 2.02734)" stroke="#F2F2F2" stroke-width="2"/>
<line y1="-1" x2="1452.16" y2="-1" transform="matrix(1 1.72785e-05 0.00132019 0.999999 1.66382 450.855)" stroke="#F2F2F2" stroke-width="2"/>
<line y1="-1" x2="1452.16" y2="-1" transform="matrix(1 1.72314e-05 0.00132025 0.999999 1.67711 514.876)" stroke="#F2F2F2" stroke-width="2"/>
<line y1="-1" x2="1452.16" y2="-1" transform="matrix(1 1.72785e-05 0.00132019 0.999999 1.5797 386.899)" stroke="#F2F2F2" stroke-width="2"/>
<line y1="-1" x2="1452.16" y2="-1" transform="matrix(1 1.72785e-05 0.00132019 0.999999 1.49547 322.942)" stroke="#F2F2F2" stroke-width="2"/>
<line y1="-1" x2="1452.16" y2="-1" transform="matrix(1 1.72785e-05 0.00132019 0.999999 1.41074 258.985)" stroke="#F2F2F2" stroke-width="2"/>
<line y1="-1" x2="1452.16" y2="-1" transform="matrix(1 1.72785e-05 0.00132019 0.999999 1.32649 195.028)" stroke="#F2F2F2" stroke-width="2"/>
<line y1="-1" x2="1452.16" y2="-1" transform="matrix(1 1.72785e-05 0.00132019 0.999999 1.24164 131.072)" stroke="#F2F2F2" stroke-width="2"/>
<line y1="-1" x2="1452.16" y2="-1" transform="matrix(1 1.72785e-05 0.00132019 0.999999 1.15739 67.1149)" stroke="#F2F2F2" stroke-width="2"/>
<line y1="-1" x2="1452.16" y2="-1" transform="matrix(1 1.72785e-05 0.00132019 0.999999 4.17958 2.85876)" stroke="#F2F2F2" stroke-width="2"/>
<line y1="-1" x2="511.957" y2="-1" transform="matrix(0.00133747 0.999999 -1 -2.1825e-10 6.31409 513.999)" stroke="#F2F2F2" stroke-width="2"/>
<line y1="-1" x2="511.957" y2="-1" transform="matrix(0.00133747 0.999999 -1 3.76259e-10 150.829 513.999)" stroke="#F2F2F2" stroke-width="2"/>
<line y1="-1" x2="511.957" y2="-1" transform="matrix(0.00133747 0.999999 -1 0 295.342 513.999)" stroke="#F2F2F2" stroke-width="2"/>
<line y1="-1" x2="511.957" y2="-1" transform="matrix(0.00133747 0.999999 -1 0 439.857 513.999)" stroke="#F2F2F2" stroke-width="2"/>
<line y1="-1" x2="511.957" y2="-1" transform="matrix(0.00133747 0.999999 -1 -2.45755e-10 584.371 513.999)" stroke="#F2F2F2" stroke-width="2"/>
<line y1="-1" x2="511.957" y2="-1" transform="matrix(0.00133747 0.999999 -1 -3.57825e-10 728.886 513.999)" stroke="#F2F2F2" stroke-width="2"/>
<line y1="-1" x2="511.957" y2="-1" transform="matrix(0.00133747 0.999999 -1 -3.57825e-10 873.4 513.999)" stroke="#F2F2F2" stroke-width="2"/>
<line y1="-1" x2="511.957" y2="-1" transform="matrix(0.00133747 0.999999 -1 0 1017.91 513.999)" stroke="#F2F2F2" stroke-width="2"/>
<line y1="-1" x2="511.957" y2="-1" transform="matrix(0.00133747 0.999999 -1 0 1162.43 513.999)" stroke="#F2F2F2" stroke-width="2"/>
<line y1="-1" x2="511.957" y2="-1" transform="matrix(0.00133747 0.999999 -1 -4.87119e-10 1306.94 513.999)" stroke="#F2F2F2" stroke-width="2"/>
<line y1="-1" x2="511.957" y2="-1" transform="matrix(0.00133747 0.999999 -1 -3.57825e-10 1451.46 513.999)" stroke="#F2F2F2" stroke-width="2"/>
<line y1="-1" x2="1452.16" y2="-1" transform="matrix(1 1.17943e-10 0.00133684 0.999999 3.46541 962.853)" stroke="#F2F2F2" stroke-width="2"/>
<line y1="-1" x2="1452.16" y2="-1" transform="matrix(1 1.17943e-10 0.00133747 0.999999 3.87779 1026.87)" stroke="#F2F2F2" stroke-width="2"/>
<line y1="-1" x2="1452.16" y2="-1" transform="matrix(1 1.17943e-10 0.00133684 0.999999 2.98201 898.898)" stroke="#F2F2F2" stroke-width="2"/>
<line y1="-1" x2="1452.16" y2="-1" transform="matrix(1 1.17943e-10 0.00133684 0.999999 2.49873 834.944)" stroke="#F2F2F2" stroke-width="2"/>
<line y1="-1" x2="1452.16" y2="-1" transform="matrix(1 1.17943e-10 0.00133684 0.999999 2.01485 770.989)" stroke="#F2F2F2" stroke-width="2"/>
<line y1="-1" x2="1452.16" y2="-1" transform="matrix(1 1.17943e-10 0.00133684 0.999999 1.53145 707.034)" stroke="#F2F2F2" stroke-width="2"/>
<line y1="-1" x2="1452.16" y2="-1" transform="matrix(1 1.17943e-10 0.00133684 0.999999 1.04756 643.079)" stroke="#F2F2F2" stroke-width="2"/>
<line y1="-1" x2="1452.16" y2="-1" transform="matrix(1 1.17943e-10 0.00133684 0.999999 0.564285 579.124)" stroke="#F2F2F2" stroke-width="2"/>
</svg>
