<svg width="1440" height="1024" viewBox="0 0 1440 1024" fill="none" xmlns="http://www.w3.org/2000/svg">
<line y1="-1" x2="511.956" y2="-1" transform="matrix(0.00132275 0.999999 -1 -1.53639e-05 -1.74609 -5.46338)" stroke="#F2F2F2" stroke-width="2"/>
<line y1="-1" x2="511.956" y2="-1" transform="matrix(0.00132023 0.999999 -1 -1.72461e-05 142.768 -5.46082)" stroke="#F2F2F2" stroke-width="2"/>
<line y1="-1" x2="511.956" y2="-1" transform="matrix(0.00132023 0.999999 -1 -1.72461e-05 287.282 -5.45844)" stroke="#F2F2F2" stroke-width="2"/>
<line y1="-1" x2="511.956" y2="-1" transform="matrix(0.00132023 0.999999 -1 -1.72461e-05 431.797 -5.45593)" stroke="#F2F2F2" stroke-width="2"/>
<line y1="-1" x2="511.956" y2="-1" transform="matrix(0.00132009 0.999999 -1 -1.73636e-05 576.311 -5.45331)" stroke="#F2F2F2" stroke-width="2"/>
<line y1="-1" x2="511.956" y2="-1" transform="matrix(0.00132009 0.999999 -1 -1.73636e-05 720.825 -5.45074)" stroke="#F2F2F2" stroke-width="2"/>
<line y1="-1" x2="511.956" y2="-1" transform="matrix(0.00132007 0.999999 -1 -1.73804e-05 865.34 -5.44824)" stroke="#F2F2F2" stroke-width="2"/>
<line y1="-1" x2="511.956" y2="-1" transform="matrix(0.00132011 0.999999 -1 -1.73472e-05 1009.85 -5.44574)" stroke="#F2F2F2" stroke-width="2"/>
<line y1="-1" x2="511.956" y2="-1" transform="matrix(0.00132014 0.999999 -1 -1.73167e-05 1154.37 -5.4433)" stroke="#F2F2F2" stroke-width="2"/>
<line y1="-1" x2="511.956" y2="-1" transform="matrix(0.00132016 0.999999 -1 -1.73004e-05 1298.88 -5.44086)" stroke="#F2F2F2" stroke-width="2"/>
<line y1="-1" x2="1452.16" y2="-1" transform="matrix(1 1.72785e-05 0.00132019 0.999999 -5.80298 443.39)" stroke="#F2F2F2" stroke-width="2"/>
<line y1="-1" x2="1452.16" y2="-1" transform="matrix(1 1.72314e-05 0.00132025 0.999999 -5.78967 507.41)" stroke="#F2F2F2" stroke-width="2"/>
<line y1="-1" x2="1452.16" y2="-1" transform="matrix(1 1.72785e-05 0.00132019 0.999999 -5.88708 379.433)" stroke="#F2F2F2" stroke-width="2"/>
<line y1="-1" x2="1452.16" y2="-1" transform="matrix(1 1.72785e-05 0.00132019 0.999999 -5.97131 315.476)" stroke="#F2F2F2" stroke-width="2"/>
<line y1="-1" x2="1452.16" y2="-1" transform="matrix(1 1.72785e-05 0.00132019 0.999999 -6.05603 251.519)" stroke="#F2F2F2" stroke-width="2"/>
<line y1="-1" x2="1452.16" y2="-1" transform="matrix(1 1.72785e-05 0.00132019 0.999999 -6.14026 187.563)" stroke="#F2F2F2" stroke-width="2"/>
<line y1="-1" x2="1452.16" y2="-1" transform="matrix(1 1.72785e-05 0.00132019 0.999999 -6.2251 123.606)" stroke="#F2F2F2" stroke-width="2"/>
<line y1="-1" x2="1452.16" y2="-1" transform="matrix(1 1.72785e-05 0.00132019 0.999999 -6.30933 59.6493)" stroke="#F2F2F2" stroke-width="2"/>
<line y1="-1" x2="511.957" y2="-1" transform="matrix(0.00133747 0.999999 -1 -2.1825e-10 -0.685913 506.999)" stroke="#F2F2F2" stroke-width="2"/>
<line y1="-1" x2="511.957" y2="-1" transform="matrix(0.00133747 0.999999 -1 3.76259e-10 143.829 506.999)" stroke="#F2F2F2" stroke-width="2"/>
<line y1="-1" x2="511.957" y2="-1" transform="matrix(0.00133747 0.999999 -1 0 288.342 506.999)" stroke="#F2F2F2" stroke-width="2"/>
<line y1="-1" x2="511.957" y2="-1" transform="matrix(0.00133747 0.999999 -1 0 432.857 506.999)" stroke="#F2F2F2" stroke-width="2"/>
<line y1="-1" x2="511.957" y2="-1" transform="matrix(0.00133747 0.999999 -1 -2.45755e-10 577.371 506.999)" stroke="#F2F2F2" stroke-width="2"/>
<line y1="-1" x2="511.957" y2="-1" transform="matrix(0.00133747 0.999999 -1 -3.57825e-10 721.886 506.999)" stroke="#F2F2F2" stroke-width="2"/>
<line y1="-1" x2="511.957" y2="-1" transform="matrix(0.00133747 0.999999 -1 -3.57825e-10 866.4 506.999)" stroke="#F2F2F2" stroke-width="2"/>
<line y1="-1" x2="511.957" y2="-1" transform="matrix(0.00133747 0.999999 -1 0 1010.91 506.999)" stroke="#F2F2F2" stroke-width="2"/>
<line y1="-1" x2="511.957" y2="-1" transform="matrix(0.00133747 0.999999 -1 0 1155.43 506.999)" stroke="#F2F2F2" stroke-width="2"/>
<line y1="-1" x2="511.957" y2="-1" transform="matrix(0.00133747 0.999999 -1 -4.87119e-10 1299.94 506.999)" stroke="#F2F2F2" stroke-width="2"/>
<line y1="-1" x2="1452.16" y2="-1" transform="matrix(1 1.17943e-10 0.00133684 0.999999 -3.53455 955.853)" stroke="#F2F2F2" stroke-width="2"/>
<line y1="-1" x2="1452.16" y2="-1" transform="matrix(1 1.17943e-10 0.00133747 0.999999 -3.12219 1019.87)" stroke="#F2F2F2" stroke-width="2"/>
<line y1="-1" x2="1452.16" y2="-1" transform="matrix(1 1.17943e-10 0.00133684 0.999999 -4.01794 891.898)" stroke="#F2F2F2" stroke-width="2"/>
<line y1="-1" x2="1452.16" y2="-1" transform="matrix(1 1.17943e-10 0.00133684 0.999999 -4.50122 827.944)" stroke="#F2F2F2" stroke-width="2"/>
<line y1="-1" x2="1452.16" y2="-1" transform="matrix(1 1.17943e-10 0.00133684 0.999999 -4.98511 763.989)" stroke="#F2F2F2" stroke-width="2"/>
<line y1="-1" x2="1452.16" y2="-1" transform="matrix(1 1.17943e-10 0.00133684 0.999999 -5.46851 700.034)" stroke="#F2F2F2" stroke-width="2"/>
<line y1="-1" x2="1452.16" y2="-1" transform="matrix(1 1.17943e-10 0.00133684 0.999999 -5.95239 636.079)" stroke="#F2F2F2" stroke-width="2"/>
<line y1="-1" x2="1452.16" y2="-1" transform="matrix(1 1.17943e-10 0.00133684 0.999999 -6.43567 572.124)" stroke="#F2F2F2" stroke-width="2"/>
</svg>
