<svg width="1600" height="1036" viewBox="0 0 1600 1036" fill="none" xmlns="http://www.w3.org/2000/svg">
<line y1="-1" x2="141.705" y2="-1" transform="matrix(1 0.000177067 0.000128827 1 1454.05 450.996)" stroke="#F2F2F2" stroke-width="2"/>
<line y1="-1" x2="141.705" y2="-1" transform="matrix(1 0.000177067 0.000128827 1 1456.05 1027)" stroke="#F2F2F2" stroke-width="2"/>
<line y1="-1" x2="141.705" y2="-1" transform="matrix(1 0.000176583 0.000128833 1 1454.05 515.017)" stroke="#F2F2F2" stroke-width="2"/>
<line y1="-1" x2="141.705" y2="-1" transform="matrix(1 0.000177067 0.000128827 1 1454.04 387.04)" stroke="#F2F2F2" stroke-width="2"/>
<line y1="-1" x2="141.705" y2="-1" transform="matrix(1 0.000177067 0.000128827 1 1456.04 963.04)" stroke="#F2F2F2" stroke-width="2"/>
<line y1="-1" x2="141.705" y2="-1" transform="matrix(1 0.000177067 0.000128827 1 1454.03 323.083)" stroke="#F2F2F2" stroke-width="2"/>
<line y1="-1" x2="141.705" y2="-1" transform="matrix(1 0.000177067 0.000128827 1 1456.03 899.083)" stroke="#F2F2F2" stroke-width="2"/>
<line y1="-1" x2="141.705" y2="-1" transform="matrix(1 0.000175828 0.000129734 1 1454.02 259.126)" stroke="#F2F2F2" stroke-width="2"/>
<line y1="-1" x2="141.705" y2="-1" transform="matrix(1 0.000175828 0.000129734 1 1456.02 835.126)" stroke="#F2F2F2" stroke-width="2"/>
<line y1="-1" x2="141.705" y2="-1" transform="matrix(1 0.000175828 0.000129734 1 1454.02 195.169)" stroke="#F2F2F2" stroke-width="2"/>
<line y1="-1" x2="141.705" y2="-1" transform="matrix(1 0.000175828 0.000129734 1 1456.02 771.169)" stroke="#F2F2F2" stroke-width="2"/>
<line y1="-1" x2="141.705" y2="-1" transform="matrix(1 0.000175828 0.000129734 1 1454.01 131.213)" stroke="#F2F2F2" stroke-width="2"/>
<line y1="-1" x2="141.705" y2="-1" transform="matrix(1 0.000175828 0.000129734 1 1456.01 707.213)" stroke="#F2F2F2" stroke-width="2"/>
<line y1="-1" x2="141.705" y2="-1" transform="matrix(1 9.59673e-05 0.000237695 1 1454 67.2561)" stroke="#F2F2F2" stroke-width="2"/>
<line y1="-1" x2="141.705" y2="-1" transform="matrix(1 9.59673e-05 0.000237695 1 1456 643.256)" stroke="#F2F2F2" stroke-width="2"/>
<line y1="-1" x2="141.705" y2="-1" transform="matrix(1 0.000177067 0.000128827 1 1454.29 3)" stroke="#F2F2F2" stroke-width="2"/>
<line y1="-1" x2="141.705" y2="-1" transform="matrix(1 0.000177067 0.000128827 1 1453 579)" stroke="#F2F2F2" stroke-width="2"/>
<line y1="-1" x2="511.956" y2="-1" transform="matrix(0.00132301 0.999999 -1 -1.53602e-05 5.93213 2.02661)" stroke="#F2F2F2" stroke-width="2"/>
<line y1="-1" x2="511.956" y2="-1" transform="matrix(0.00132049 0.999999 -1 -1.72427e-05 150.475 2.0293)" stroke="#F2F2F2" stroke-width="2"/>
<line y1="-1" x2="511.956" y2="-1" transform="matrix(0.00132049 0.999999 -1 -1.72427e-05 295.018 2.03149)" stroke="#F2F2F2" stroke-width="2"/>
<line y1="-1" x2="511.956" y2="-1" transform="matrix(0.00132049 0.999999 -1 -1.72427e-05 439.561 2.03418)" stroke="#F2F2F2" stroke-width="2"/>
<line y1="-1" x2="511.956" y2="-1" transform="matrix(0.00132035 0.999999 -1 -1.73601e-05 584.104 2.03662)" stroke="#F2F2F2" stroke-width="2"/>
<line y1="-1" x2="511.956" y2="-1" transform="matrix(0.00132035 0.999999 -1 -1.73601e-05 728.648 2.03931)" stroke="#F2F2F2" stroke-width="2"/>
<line y1="-1" x2="511.956" y2="-1" transform="matrix(0.00132033 0.999999 -1 -1.73769e-05 873.191 2.04175)" stroke="#F2F2F2" stroke-width="2"/>
<line y1="-1" x2="511.956" y2="-1" transform="matrix(0.00132037 0.999999 -1 -1.73437e-05 1017.73 2.04419)" stroke="#F2F2F2" stroke-width="2"/>
<line y1="-1" x2="511.956" y2="-1" transform="matrix(0.00132041 0.999999 -1 -1.73132e-05 1162.28 2.04663)" stroke="#F2F2F2" stroke-width="2"/>
<line y1="-1" x2="511.956" y2="-1" transform="matrix(0.00132043 0.999999 -1 -1.72969e-05 1306.82 2.02441)" stroke="#F2F2F2" stroke-width="2"/>
<line y1="-1" x2="511.956" y2="-1" transform="matrix(0.00132043 0.999999 -1 -1.72969e-05 1596.32 3.02441)" stroke="#F2F2F2" stroke-width="2"/>
<line y1="-1" x2="511.956" y2="-1" transform="matrix(0.00132043 0.999999 -1 -1.72969e-05 1597.32 515.024)" stroke="#F2F2F2" stroke-width="2"/>
<line y1="-1" x2="511.956" y2="-1" transform="matrix(0.00132036 0.999999 -1 -1.73492e-05 1451.36 2.05176)" stroke="#F2F2F2" stroke-width="2"/>
<line y1="-1" x2="1452.45" y2="-1" transform="matrix(1 1.7275e-05 0.00132045 0.999999 1.66409 450.879)" stroke="#F2F2F2" stroke-width="2"/>
<line y1="-1" x2="1452.45" y2="-1" transform="matrix(1 1.6973e-05 0.00132082 0.999999 1.67755 514.9)" stroke="#F2F2F2" stroke-width="2"/>
<line y1="-1" x2="1452.45" y2="-1" transform="matrix(1 1.7275e-05 0.00132045 0.999999 1.57996 386.923)" stroke="#F2F2F2" stroke-width="2"/>
<line y1="-1" x2="1452.45" y2="-1" transform="matrix(1 1.7275e-05 0.00132045 0.999999 1.4957 322.966)" stroke="#F2F2F2" stroke-width="2"/>
<line y1="-1" x2="1452.45" y2="-1" transform="matrix(1 1.7275e-05 0.00132045 0.999999 1.41092 259.01)" stroke="#F2F2F2" stroke-width="2"/>
<line y1="-1" x2="1452.45" y2="-1" transform="matrix(1 1.7275e-05 0.00132045 0.999999 1.32669 195.052)" stroke="#F2F2F2" stroke-width="2"/>
<line y1="-1" x2="1452.45" y2="-1" transform="matrix(1 1.7275e-05 0.00132045 0.999999 1.24182 131.096)" stroke="#F2F2F2" stroke-width="2"/>
<line y1="-1" x2="1452.45" y2="-1" transform="matrix(1 1.7275e-05 0.00132045 0.999999 1.15756 67.1392)" stroke="#F2F2F2" stroke-width="2"/>
<line y1="-1" x2="1452.45" y2="-1" transform="matrix(1 1.72751e-05 0.00132045 0.999999 4.18033 2.88306)" stroke="#F2F2F2" stroke-width="2"/>
<line y1="-1" x2="511.957" y2="-1" transform="matrix(0.00133773 0.999999 -1 -2.19453e-10 6.31531 513.999)" stroke="#F2F2F2" stroke-width="2"/>
<line y1="-1" x2="511.957" y2="-1" transform="matrix(0.00133773 0.999999 -1 3.76184e-10 150.859 513.999)" stroke="#F2F2F2" stroke-width="2"/>
<line y1="-1" x2="511.957" y2="-1" transform="matrix(0.00133773 0.999999 -1 0 295.401 513.999)" stroke="#F2F2F2" stroke-width="2"/>
<line y1="-1" x2="511.957" y2="-1" transform="matrix(0.00133773 0.999999 -1 0 439.944 513.999)" stroke="#F2F2F2" stroke-width="2"/>
<line y1="-1" x2="511.957" y2="-1" transform="matrix(0.00133773 0.999999 -1 -2.45706e-10 584.487 513.999)" stroke="#F2F2F2" stroke-width="2"/>
<line y1="-1" x2="511.957" y2="-1" transform="matrix(0.00133773 0.999999 -1 -3.57753e-10 729.031 513.999)" stroke="#F2F2F2" stroke-width="2"/>
<line y1="-1" x2="511.957" y2="-1" transform="matrix(0.00133773 0.999999 -1 -3.57753e-10 873.574 513.999)" stroke="#F2F2F2" stroke-width="2"/>
<line y1="-1" x2="511.957" y2="-1" transform="matrix(0.00133773 0.999999 -1 0 1018.12 513.999)" stroke="#F2F2F2" stroke-width="2"/>
<line y1="-1" x2="511.957" y2="-1" transform="matrix(0.00133773 0.999999 -1 0 1162.66 513.999)" stroke="#F2F2F2" stroke-width="2"/>
<line y1="-1" x2="511.957" y2="-1" transform="matrix(0.00133773 0.999999 -1 -4.87022e-10 1307.2 513.999)" stroke="#F2F2F2" stroke-width="2"/>
<line y1="-1" x2="511.957" y2="-1" transform="matrix(0.00133773 0.999999 -1 -3.57753e-10 1451.75 513.999)" stroke="#F2F2F2" stroke-width="2"/>
<line y1="-1" x2="1452.45" y2="-1" transform="matrix(1 1.19129e-10 0.00133711 0.999999 3.46606 962.853)" stroke="#F2F2F2" stroke-width="2"/>
<line y1="-1" x2="1452.45" y2="-1" transform="matrix(1 1.19129e-10 0.00133773 0.999999 3.87854 1026.87)" stroke="#F2F2F2" stroke-width="2"/>
<line y1="-1" x2="1452.45" y2="-1" transform="matrix(1 1.19129e-10 0.00133711 0.999999 2.98254 898.898)" stroke="#F2F2F2" stroke-width="2"/>
<line y1="-1" x2="1452.45" y2="-1" transform="matrix(1 1.19129e-10 0.00133711 0.999999 2.49918 834.943)" stroke="#F2F2F2" stroke-width="2"/>
<line y1="-1" x2="1452.45" y2="-1" transform="matrix(1 1.19129e-10 0.00133711 0.999999 2.01523 770.988)" stroke="#F2F2F2" stroke-width="2"/>
<line y1="-1" x2="1452.45" y2="-1" transform="matrix(1 1.19129e-10 0.00133711 0.999999 1.53171 707.033)" stroke="#F2F2F2" stroke-width="2"/>
<line y1="-1" x2="1452.45" y2="-1" transform="matrix(1 1.19129e-10 0.00133711 0.999999 1.04773 643.079)" stroke="#F2F2F2" stroke-width="2"/>
<line y1="-1" x2="1452.45" y2="-1" transform="matrix(1 1.19129e-10 0.00133711 0.999999 0.564362 579.124)" stroke="#F2F2F2" stroke-width="2"/>
</svg>
